<svg width="27" height="24" viewBox="0 0 27 24" fill="none" xmlns="http://www.w3.org/2000/svg">
<path d="M19.9583 0.666626H7.04167C6.70584 0.666626 6.38292 0.67996 6.07292 0.733293C2.74042 1.13329 0.583336 3.67996 0.583336 7.33329V16.6666C0.583336 20.6666 3.16667 23.3333 7.04167 23.3333H19.9583C23.8333 23.3333 26.4167 20.6666 26.4167 16.6666V7.33329C26.4167 3.33329 23.8333 0.666626 19.9583 0.666626ZM8.17834 15.3333C6.39584 15.3333 4.94917 13.84 4.94917 12C4.94917 10.16 6.39584 8.66663 8.17834 8.66663C9.96084 8.66663 11.4075 10.16 11.4075 12C11.4075 13.84 9.96084 15.3333 8.17834 15.3333ZM16.5742 15.6666H15.9283C15.3988 15.6666 14.9596 15.2133 14.9596 14.6666C14.9596 14.12 15.3988 13.6666 15.9283 13.6666H16.5742C17.1038 13.6666 17.5429 14.12 17.5429 14.6666C17.5429 15.2133 17.1038 15.6666 16.5742 15.6666ZM21.095 15.6666H20.4492C19.9196 15.6666 19.4804 15.2133 19.4804 14.6666C19.4804 14.12 19.9196 13.6666 20.4492 13.6666H21.095C21.6246 13.6666 22.0638 14.12 22.0638 14.6666C22.0638 15.2133 21.6246 15.6666 21.095 15.6666ZM21.095 10.3333H15.9283C15.3988 10.3333 14.9596 9.87996 14.9596 9.33329C14.9596 8.78662 15.3988 8.33329 15.9283 8.33329H21.095C21.6246 8.33329 22.0638 8.78662 22.0638 9.33329C22.0638 9.87996 21.6246 10.3333 21.095 10.3333Z" fill="#202020"/>
</svg>
